<svg xmlns="http://www.w3.org/2000/svg" xmlns:xlink="http://www.w3.org/1999/xlink" id="Layer_1" width="100" height="100" x="0" y="0" enable-background="new 0 0 100 100" version="1.1" viewBox="0 0 100 100" xml:space="preserve"><switch><g><g><g><path fill="#2D2D2D" d="M76.24,42.25H23.79c-2.9,0-5.24,2.34-5.24,5.24v1.74c0,2.33,1.49,4.23,3.59,4.94l5.22,18.25 c0.04,0.11,0.07,0.22,0.13,0.31c2.04,4.1,4.38,4.45,6.78,4.45h31.47c2.44,0,4.75-0.35,6.8-4.45c0.05-0.1,0.08-0.2,0.14-0.31 l5.21-18.25c2.12-0.71,3.58-2.61,3.58-4.94v-1.74C81.46,44.59,79.11,42.25,76.24,42.25z M65.13,69.81H34.49 c-0.8,0-1.46-0.67-1.46-1.46c0-0.84,0.66-1.5,1.46-1.5h30.64c0.78,0,1.45,0.66,1.45,1.5C66.58,69.15,65.91,69.81,65.13,69.81z M67.14,61.83h-34.1c-0.82,0-1.49-0.67-1.49-1.45c0-0.85,0.67-1.5,1.49-1.5h34.1c0.84,0,1.5,0.66,1.5,1.5 C68.64,61.16,67.98,61.83,67.14,61.83z M68.66,53.84H31.91c-0.83,0-1.5-0.67-1.5-1.46c0-0.83,0.67-1.49,1.5-1.49h36.75 c0.82,0,1.48,0.66,1.48,1.49C70.14,53.17,69.48,53.84,68.66,53.84z"/><path fill="#2D2D2D" d="M35.92,38.26l12.89-13.2c0.38,0.14,0.77,0.23,1.19,0.23c0.45,0,0.89-0.09,1.27-0.23l12.8,13.19 c0.36,0.38,0.86,0.56,1.36,0.56c0.46,0,0.93-0.16,1.28-0.52c0.73-0.7,0.76-1.88,0.06-2.63L53.62,22.1 c0-0.15,0.04-0.32,0.04-0.47c0-2.02-1.64-3.66-3.66-3.66c-2.03,0-3.67,1.64-3.67,3.66c0,0.19,0.03,0.38,0.06,0.56L33.27,35.67 c-0.73,0.74-0.7,1.92,0.02,2.63C34.02,39.01,35.2,39,35.92,38.26z"/></g><path fill="#D7D7D7" d="M50,99.5C22.71,99.5,0.5,77.3,0.5,50C0.5,22.71,22.71,0.5,50,0.5c27.3,0,49.5,22.21,49.5,49.5 C99.5,77.3,77.3,99.5,50,99.5z M50,3.38C24.3,3.38,3.38,24.3,3.38,50C3.38,75.7,24.3,96.62,50,96.62 c25.7,0,46.62-20.91,46.62-46.62C96.62,24.3,75.7,3.38,50,3.38z"/></g></g></switch></svg>